# xmcd
#
# Track frame offsets:
#	150
#	11677
#	28806
#	41823
#	61273
#	75372
#	91204
#	106852
#	121539
#	135810
#	149795
#	160882
#
# Disc length: 2389
#
# Revision: 1
# Processed by: cddbd v1.5.1PL0 Copyright (c) Steve Scherf et al.
# Submitted via: CDex 1.50
# Normalized: r0:TRMNUM
#
DISCID=8f09530c
DTITLE=John Reischman - Up in the Woods
DYEAR=1900
DGENRE=Country
TTITLE0=up in the woods
TTITLE1=INdiana Firefly
TTITLE2=Bluegrass Signal
TTITLE3=The North Shore
TTITLE4=Ponies in  the Forest
TTITLE5=Eighth of February
TTITLE6=Johnson Warhorse
TTITLE7=Nesser
TTITLE8=The Nootka Blues
TTITLE9=Alexandra Waltz
TTITLE10=Low Gap
TTITLE11=Greenwood
EXTD=
EXTT0=
EXTT1=
EXTT2=
EXTT3=
EXTT4=
EXTT5=
EXTT6=
EXTT7=
EXTT8=
EXTT9=
EXTT10=
EXTT11=
PLAYORDER=
